<?xml version="1.0" encoding="UTF-8"?>
<svg xmlns="http://www.w3.org/2000/svg" width="500" height="500" viewBox="0 0 500 500" fill="none">
  <path d="M328.889 325.417C330.992 307.896 330.362 305.326 343.412 308.164L346.726 308.455C356.761 308.912 369.888 306.841 377.6 303.255C394.202 295.551 404.046 282.69 387.676 286.07C350.336 293.773 347.769 281.129 347.769 281.129C387.198 222.624 403.681 148.362 389.454 130.185C350.648 80.6043 283.477 104.051 282.353 104.66L281.995 104.726C273.792 103.08 265.452 102.211 257.085 102.131C240.183 101.852 227.368 106.56 217.639 113.938C217.639 113.938 97.8112 64.5701 103.386 176.022C104.572 199.727 137.372 355.426 176.489 308.399C190.791 291.203 204.604 276.663 204.604 276.663C211.563 281.361 219.936 283.499 228.296 282.712L228.961 282.143C228.761 284.377 228.85 286.628 229.228 288.839C219.152 300.099 222.112 302.076 201.965 306.223C181.581 310.424 193.557 317.903 201.374 319.858C210.852 322.229 232.781 325.586 247.601 304.844L247.01 307.211C250.963 310.374 250.696 329.942 251.257 343.923C251.818 357.904 252.754 370.953 255.604 378.646C258.454 386.339 261.816 406.152 288.293 400.477C310.423 395.734 327.343 388.909 328.884 325.416" fill="#9F9F9F"></path>
  <path d="M279.38 415.394C261.88 415.394 249.767 405.397 243.29 385.55C243.039 384.782 242.814 384.078 242.589 383.469C239.204 374.334 238.061 361.274 237.388 344.48C237.289 341.997 237.214 339.342 237.138 336.633C237.092 334.962 237.038 333.03 236.968 331.007C225.588 335.995 212.248 336.887 198.006 333.328C191.638 331.736 185.035 328.515 180.927 323.577C169.585 333.005 158.807 331.62 152.87 329.64C110.591 315.534 90.0652 187.574 89.522 176.716C87.7668 141.62 97.2586 116.491 117.731 102.027C149.644 79.4851 197.694 92.3693 215.782 98.4809C227.669 91.4314 241.599 87.9944 257.31 88.2526C265.232 88.3511 273.135 89.0683 280.945 90.3978C300.498 84.0216 362.515 73.2519 400.38 121.634C420.247 147.018 400.076 220.526 368.226 274.664C373.826 274.419 379.394 273.688 384.867 272.48C403.011 268.735 408.042 279.404 409.15 282.763C414.774 299.786 390.891 312.392 383.438 315.852C374.008 320.232 358.648 322.895 346.091 322.324L343.253 322.083C343.185 322.656 343.118 323.233 343.052 323.795L342.745 326.405C341.056 391.133 323.309 407.171 291.204 414.051C287.321 414.913 283.358 415.363 279.38 415.394ZM255.682 296.372C263.604 302.71 264.287 314.271 264.889 335.861C264.961 338.453 265.032 340.993 265.126 343.369C265.409 350.427 266.073 366.949 268.62 373.829C268.957 374.739 269.305 375.79 269.68 376.941C272.559 385.755 273.748 389.404 285.387 386.909C301.799 383.392 313.656 380.852 315.011 325.084L328.881 325.421L315.106 323.768L315.477 320.591C316.685 310.244 317.632 302.072 325.017 296.796C329.676 293.467 334.917 293.024 339.464 293.437C336.821 290.83 334.981 287.52 334.161 283.9L333.004 278.202L336.254 273.38C375.522 215.118 386.185 148.824 378.518 138.747C347.666 99.325 293.974 115.422 288.066 117.357L287.032 117.914L282.197 118.807L279.174 118.321C271.824 116.857 264.354 116.084 256.86 116.012C244.356 115.807 234.271 118.746 226.029 125L219.699 129.801L212.353 126.774C197.987 120.902 155.816 109.074 133.715 124.731C121.538 133.354 116.002 150.378 117.249 175.329C118.817 206.675 145.48 299.966 161.709 303.318C163.29 302.303 164.681 301.018 165.818 299.521C180.242 282.173 193.966 267.707 194.542 267.1L202.574 258.649L212.286 265.101C215.497 267.272 219.209 268.588 223.07 268.926L246.121 249.266L242.778 283.494C242.691 284.571 242.748 285.654 242.947 286.715L243.953 293.204L239.574 298.097L239.456 298.228L250.224 303.198L255.682 296.372Z" fill="#9F9F9F"></path>
  <path d="M387.679 286.073C350.335 293.777 347.768 281.133 347.768 281.133C387.197 222.627 403.68 148.361 389.456 130.184C350.651 80.6033 283.478 104.052 282.357 104.661L281.996 104.726C273.79 103.078 265.447 102.208 257.078 102.126C240.176 101.847 227.361 106.556 217.637 113.931C217.637 113.931 97.8062 64.5653 103.38 176.018C104.566 199.728 137.363 355.422 176.484 308.396C190.786 291.2 204.598 276.659 204.598 276.659C211.556 281.357 219.928 283.494 228.286 282.708L228.954 282.139C228.756 284.374 228.846 286.624 229.223 288.835C219.145 300.095 222.107 302.072 201.96 306.219C181.575 310.42 193.55 317.899 201.37 319.854C210.848 322.225 232.778 325.582 247.596 304.841L247.005 307.208C250.954 310.371 253.727 327.78 253.262 343.562C252.798 359.344 252.487 370.18 255.599 378.643C258.711 387.106 261.811 406.149 288.295 400.474C310.425 395.731 321.893 383.443 323.491 362.942C324.623 348.369 327.186 350.522 327.347 337.497L329.402 331.329C331.772 311.573 329.778 305.199 343.413 308.164L346.726 308.455C356.762 308.912 369.895 306.841 377.603 303.254C394.202 295.551 404.046 282.69 387.68 286.07L387.679 286.073Z" fill="#336791"></path>
  <path d="M280.985 406.744C258.697 406.744 251.647 389.106 248.761 381.889C244.531 371.31 243.611 331.765 244.576 297.267C244.593 296.66 244.73 296.062 244.978 295.507C245.226 294.953 245.581 294.452 246.022 294.035C246.464 293.617 246.983 293.291 247.551 293.074C248.119 292.858 248.723 292.755 249.331 292.772C249.938 292.789 250.536 292.925 251.091 293.174C251.646 293.422 252.146 293.777 252.563 294.218C252.981 294.66 253.307 295.179 253.524 295.747C253.741 296.314 253.844 296.919 253.827 297.527C252.752 335.946 254.268 370.737 257.355 378.453C262.136 390.403 269.385 400.857 289.878 396.469C309.639 392.232 316.667 385.118 319.96 366.019C322.48 351.423 327.46 309.869 328.076 301.663C328.168 300.439 328.742 299.302 329.672 298.502C330.602 297.701 331.812 297.303 333.036 297.395C334.259 297.486 335.397 298.061 336.197 298.991C336.997 299.921 337.396 301.131 337.304 302.355C336.662 310.906 331.698 352.423 329.08 367.592C325.173 390.252 315.074 400.532 291.817 405.518C288.26 406.307 284.629 406.717 280.985 406.744Z" fill="white"></path>
  <path d="M161.323 321.355C159.353 321.349 157.396 321.025 155.53 320.395C121.116 308.916 99.2363 190.59 98.4961 175.787C96.909 144.059 105.097 121.601 122.827 109.036C157.865 84.212 216.715 107.814 219.202 108.831C219.764 109.061 220.276 109.399 220.708 109.826C221.139 110.254 221.483 110.762 221.718 111.323C221.953 111.883 222.076 112.484 222.079 113.091C222.082 113.699 221.965 114.301 221.736 114.864C221.506 115.426 221.167 115.938 220.74 116.37C220.312 116.802 219.804 117.145 219.244 117.38C218.684 117.616 218.082 117.738 217.475 117.741C216.867 117.744 216.265 117.627 215.702 117.398C215.14 117.168 159.041 94.6993 128.161 116.598C113.189 127.215 106.316 146.975 107.731 175.325C108.775 196.22 131.739 302.707 158.45 311.617C160.132 312.174 165.249 313.885 172.659 304.978C186.894 287.853 199.97 274.185 200.1 274.048C200.95 273.162 202.117 272.65 203.344 272.624C204.571 272.599 205.758 273.062 206.644 273.911C207.53 274.761 208.042 275.928 208.068 277.155C208.094 278.383 207.631 279.57 206.781 280.456C206.653 280.589 193.791 294.036 179.774 310.898C173.054 318.978 166.594 321.355 161.323 321.355Z" fill="white"></path>
  <path d="M347.502 285.298C346.663 285.297 345.84 285.068 345.121 284.635C344.402 284.203 343.815 283.583 343.421 282.842C343.027 282.101 342.843 281.267 342.886 280.429C342.93 279.591 343.201 278.781 343.67 278.085C383.45 219.055 397.47 147.805 385.552 132.572C349.997 87.1421 289.753 106.42 284.312 108.301C284.087 108.414 283.853 108.509 283.612 108.584C282.513 108.932 281.326 108.874 280.266 108.421C279.207 107.968 278.344 107.151 277.836 106.117C277.373 105.083 277.303 103.916 277.64 102.835C277.977 101.754 278.698 100.833 279.666 100.246C279.711 100.22 280.12 100.061 280.856 99.8137L280.839 99.7543C281.052 99.689 281.269 99.639 281.489 99.6047C292.927 95.8901 355.392 79.0163 392.84 126.867C409.845 148.598 388.904 227.523 351.346 283.254C350.922 283.884 350.35 284.4 349.68 284.757C349.009 285.113 348.261 285.299 347.502 285.298Z" fill="white"></path>
  <path d="M349.546 312.664C342.674 312.664 336.498 311.692 332.802 309.479C328.909 307.148 328.166 303.962 328.066 302.27C327.055 284.533 336.554 281.012 341.823 279.493C341.153 278.531 340.271 277.43 339.363 276.295C335.169 271.378 331.742 265.855 329.2 259.913C328.721 258.75 327.195 256.012 325.429 252.848C315.797 235.575 295.754 199.632 308.713 181.113C314.664 172.607 326.402 169.196 343.649 170.942C338.119 154.95 313.428 107.221 256.741 106.293C239.415 106.009 225.224 111.324 214.562 122.093C190.637 146.257 191.504 190.015 191.516 190.454C191.549 191.681 191.092 192.87 190.248 193.761C189.403 194.651 188.24 195.169 187.013 195.201C185.786 195.234 184.597 194.777 183.707 193.933C182.817 193.088 182.298 191.924 182.266 190.698C182.215 188.748 181.312 142.522 207.99 115.581C220.496 102.951 236.95 96.7117 256.897 97.0386C327.914 98.2031 353.247 165.695 354.099 174.749C354.577 179.831 350.672 180.785 350.226 180.878L348.554 180.916C336.899 179.05 321.842 178.489 316.297 186.415C306.664 200.184 325.481 233.929 333.516 248.339C335.581 252.041 337.072 254.716 337.759 256.381C339.973 261.51 342.951 266.274 346.593 270.511C349.05 273.581 351.181 276.244 351.965 279.406C352.369 280.062 357.508 287.058 386.487 281.078C394.102 279.506 398.685 280.892 400.109 285.197C402.858 293.516 387.694 303.094 379.292 306.996C371.806 310.467 359.883 312.664 349.546 312.664ZM347.006 287.569C346.238 287.864 345.548 288.057 345.077 288.19C340.754 289.403 336.671 290.55 337.308 301.743C340.016 304.639 362.909 304.397 375.392 298.604C380.194 296.462 384.637 293.594 388.564 290.099L388.355 290.142C369.347 294.065 355.881 293.528 348.33 288.544C347.872 288.242 347.43 287.917 347.006 287.569Z" fill="white"></path>
  <path d="M236.479 279.614C238.693 279.682 240.87 280.2 242.877 281.137C247.555 283.076 251.453 287.752 253.053 293.342C254.501 298.399 253.806 303.278 251.097 307.067C242.345 319.326 229.779 325.8 214.76 325.8C209.774 325.767 204.811 325.124 199.982 323.884C198.514 323.513 185.629 320.057 185.801 311.821C185.957 304.281 196.713 302.065 200.763 301.234C215 298.304 215.92 297.134 220.342 291.52C221.697 289.8 223.304 287.763 225.512 285.298C228.878 281.525 232.569 279.614 236.479 279.614ZM214.761 316.546C226.833 316.546 236.527 311.547 243.567 301.688C244.965 299.73 244.537 297.213 244.158 295.887C243.354 293.079 241.372 290.529 239.336 289.685C238.443 289.238 237.475 288.961 236.48 288.866C235.318 288.866 233.949 289.739 232.412 291.458C230.359 293.751 228.871 295.644 227.614 297.239C221.965 304.41 219.38 306.844 202.633 310.292C200.373 310.692 198.166 311.349 196.056 312.25C197.954 313.469 200.039 314.366 202.229 314.905C206.324 315.961 210.532 316.512 214.761 316.546Z" fill="white"></path>
  <path d="M228.295 292.808C227.191 292.806 226.123 292.41 225.285 291.69C224.447 290.97 223.895 289.974 223.727 288.882C223.633 288.267 223.566 287.648 223.527 287.024C212.379 286.637 201.838 281.852 194.209 273.715C189.167 268.402 185.403 262.01 183.203 255.024C181.003 248.038 180.425 240.643 181.513 233.4C183.773 217.241 182.927 202.975 182.472 195.31C182.345 193.156 182.254 191.533 182.261 190.545C182.311 183.099 204.145 173.572 216.791 172.262C232.485 170.638 242.829 177.636 245.929 191.968C254.203 230.233 246.579 247.171 241.013 259.538C239.992 261.8 239.029 263.939 238.233 266.079L237.543 267.937C234.628 275.751 232.11 282.5 232.875 287.483C232.975 288.143 232.932 288.816 232.748 289.458C232.564 290.099 232.244 290.694 231.809 291.2C231.374 291.706 230.835 292.112 230.229 292.39C229.622 292.669 228.963 292.813 228.295 292.813V292.808ZM191.549 191.893C191.584 192.669 191.642 193.631 191.711 194.761C192.184 202.747 193.066 217.612 190.679 234.68C189.788 240.539 190.246 246.523 192.016 252.178C193.786 257.833 196.822 263.01 200.894 267.314C203.923 270.563 207.577 273.166 211.637 274.966C215.698 276.767 220.08 277.727 224.521 277.79C225.721 273.347 227.173 268.977 228.872 264.7L229.557 262.86C230.423 260.53 231.468 258.201 232.575 255.742C237.894 243.923 244.514 229.214 236.884 193.926C235.41 187.11 231.863 183.148 226.044 181.814C213.292 178.887 195.405 188.474 191.549 191.893Z" fill="white"></path>
  <path d="M217.019 189.91C216.805 191.424 219.79 195.464 223.683 196.003C227.576 196.543 230.895 193.388 231.105 191.876C231.316 190.364 228.335 188.695 224.441 188.153C220.548 187.612 217.226 188.4 217.02 189.91H217.019Z" fill="white"></path>
  <path d="M222.046 186.44C222.919 186.442 223.79 186.504 224.655 186.626C226.544 186.857 228.376 187.425 230.065 188.304C232.564 189.697 232.747 191.275 232.633 192.089C232.242 193.59 231.301 194.889 229.998 195.73C228.438 196.919 226.538 197.576 224.577 197.607C224.207 197.607 223.837 197.581 223.471 197.53C220.82 197.063 218.453 195.587 216.868 193.412C216.27 192.62 215.296 191.083 215.492 189.698L215.678 188.371H216.073C216.586 187.764 217.256 187.31 218.01 187.059C219.309 186.619 220.675 186.409 222.046 186.44ZM229.542 191.751C229.147 191.323 228.662 190.989 228.121 190.771C226.884 190.219 225.572 189.852 224.228 189.681C223.505 189.578 222.776 189.526 222.045 189.524C221.179 189.51 220.314 189.61 219.474 189.822C219.156 189.898 218.853 190.027 218.577 190.203C218.901 191.045 219.416 191.802 220.08 192.413C221.104 193.483 222.439 194.204 223.895 194.475C224.121 194.506 224.349 194.522 224.577 194.522C225.838 194.487 227.057 194.066 228.071 193.315C228.675 192.913 229.178 192.378 229.542 191.751Z" fill="white"></path>
  <path d="M335.374 186.824C335.585 188.338 332.604 192.378 328.71 192.917C324.816 193.457 321.495 190.302 321.28 188.79C321.066 187.278 324.057 185.609 327.946 185.067C331.836 184.526 335.161 185.314 335.376 186.825L335.374 186.824Z" fill="white"></path>
  <path d="M330.344 184.125C331.623 184.094 332.897 184.286 334.109 184.693C335.632 185.264 336.054 186.109 336.138 186.718C336.282 187.751 335.498 189.341 334.14 190.767C332.735 192.299 330.864 193.323 328.817 193.681C328.485 193.727 328.151 193.75 327.817 193.749C326.02 193.719 324.281 193.115 322.853 192.026C321.721 191.3 320.892 190.189 320.519 188.897C320.374 187.829 321.15 186.761 322.704 185.894C324.308 185.062 326.049 184.524 327.843 184.306C328.671 184.188 329.507 184.128 330.344 184.125ZM334.611 186.931C334.539 186.421 333.134 185.666 330.344 185.666C329.578 185.668 328.814 185.723 328.055 185.83C323.998 186.395 321.959 188.01 322.047 188.684C322.38 189.553 322.986 190.291 323.774 190.788C324.939 191.675 326.353 192.171 327.817 192.207C328.08 192.207 328.343 192.188 328.604 192.152C330.306 191.842 331.858 190.982 333.023 189.703C333.847 188.983 334.407 188.006 334.611 186.93V186.931Z" fill="white"></path>
  <path d="M340.979 274.034C340.141 274.033 339.319 273.805 338.6 273.373C337.882 272.942 337.294 272.323 336.9 271.584C336.506 270.845 336.319 270.012 336.361 269.175C336.403 268.338 336.671 267.528 337.138 266.832C346.177 253.331 344.518 239.517 342.912 226.157C342.074 220.409 341.667 214.606 341.696 208.797C341.918 203.65 342.469 198.522 343.346 193.445C344.193 187.943 344.993 182.747 344.662 176.595C344.595 175.37 345.019 174.168 345.838 173.255C346.658 172.342 347.807 171.792 349.032 171.725C350.258 171.659 351.459 172.083 352.372 172.902C353.285 173.722 353.836 174.871 353.902 176.096C354.285 183.207 353.373 189.127 352.492 194.855C351.677 199.565 351.161 204.322 350.946 209.097C350.935 214.438 351.321 219.772 352.1 225.055C353.823 239.387 355.775 255.631 344.827 271.981C344.404 272.614 343.831 273.132 343.16 273.49C342.489 273.848 341.739 274.035 340.979 274.034Z" fill="white"></path>
</svg>
